# xmcd CD database file
#
# Track frame offsets:
#	150
#	41096
#	91523
#	137732
#	180520
#	207258
#
# Disc length: 2949 seconds
#
# Revision: 0
# Processed by: cddbd v1.5.2PL0 Copyright (c) Steve Scherf et al.
# Submitted via: CDex 1.70beta2
#
DISCID=470b8306
DTITLE=Bob Brookmeyer and WDR Big Band - On The Way To The Sky
DYEAR=1989
DGENRE=Jazz
TTITLE0=Awakening
TTITLE1=Earth
TTITLE2=Fire
TTITLE3=Water
TTITLE4=Ascension
TTITLE5=The Sky
EXTD=YEAR: 1989
EXTT0=
EXTT1=
EXTT2=
EXTT3=
EXTT4=
EXTT5=
PLAYORDER=
